HIERARCHY
ROOT Hips
{
	OFFSET -14.64140 90.27770 -84.91600
	CHANNELS 6 Xposition Yposition Zposition Zrotation Xrotation Yrotation
	JOINT Spine
	{
		OFFSET 0.00000 13.20850 -1.60436
		CHANNELS 3 Zrotation Xrotation Yrotation
		JOINT Spine1
		{
			OFFSET 0.00000 8.61716 0.00000
			CHANNELS 3 Zrotation Xrotation Yrotation
			JOINT Spine2
			{
				OFFSET 0.00000 8.61717 0.00000
				CHANNELS 3 Zrotation Xrotation Yrotation
				JOINT Spine3
				{
					OFFSET 0.00000 8.61717 0.00000
					CHANNELS 3 Zrotation Xrotation Yrotation
					JOINT Neck
					{
						OFFSET 0.00000 11.07920 1.10792
						CHANNELS 3 Zrotation Xrotation Yrotation
						JOINT Neck1
						{
							OFFSET 0.00000 7.08032 0.00000
							CHANNELS 3 Zrotation Xrotation Yrotation
							JOINT Head
							{
								OFFSET 0.00000 7.08031 0.00000
								CHANNELS 3 Zrotation Xrotation Yrotation
								End site
								{
									OFFSET 0.00000 0.00000 0.00000
								}
							}
						}
					}
					JOINT RightShoulder
					{
						OFFSET -0.01000 7.91373 5.19711
						CHANNELS 3 Zrotation Xrotation Yrotation
						JOINT RightArm
						{
							OFFSET -18.41580 0.00000 0.00000
							CHANNELS 3 Zrotation Xrotation Yrotation
							JOINT RightForeArm
							{
								OFFSET -29.11090 0.00000 0.00000
								CHANNELS 3 Zrotation Xrotation Yrotation
								JOINT RightHand
								{
									OFFSET -24.65040 0.00000 0.00000
									CHANNELS 3 Zrotation Xrotation Yrotation
									JOINT RightHandThumb1
									{
										OFFSET -5.35114 -0.85590 3.97906
										CHANNELS 3 Zrotation Xrotation Yrotation
										JOINT RightHandThumb2
										{
											OFFSET -4.52789 0.00000 0.00000
											CHANNELS 3 Zrotation Xrotation Yrotation
											JOINT RightHandThumb3
											{
												OFFSET -2.46976 0.00000 0.00000
												CHANNELS 3 Zrotation Xrotation Yrotation
												End site
												{
													OFFSET 0.00000 0.00000 0.00000
												}
											}
										}
									}
									JOINT RightHandIndex1
									{
										OFFSET -14.26970 0.00000 2.88139
										CHANNELS 3 Zrotation Xrotation Yrotation
										JOINT RightHandIndex2
										{
											OFFSET -5.48836 0.00000 0.00000
											CHANNELS 3 Zrotation Xrotation Yrotation
											JOINT RightHandIndex3
											{
												OFFSET -3.01859 0.00000 0.00000
												CHANNELS 3 Zrotation Xrotation Yrotation
												End site
												{
													OFFSET 0.00000 0.00000 0.00000
												}
											}
										}
									}
									JOINT RightHandMiddle1
									{
										OFFSET -14.26970 0.00000 -0.09147
										CHANNELS 3 Zrotation Xrotation Yrotation
										JOINT RightHandMiddle2
										{
											OFFSET -6.17441 0.00000 0.00000
											CHANNELS 3 Zrotation Xrotation Yrotation
											JOINT RightHandMiddle3
											{
												OFFSET -3.56743 0.00000 0.00000
												CHANNELS 3 Zrotation Xrotation Yrotation
												End site
												{
													OFFSET 0.00000 0.00000 0.00000
												}
											}
										}
									}
									JOINT RightHandRing1
									{
										OFFSET -12.69180 0.00000 -3.06433
										CHANNELS 3 Zrotation Xrotation Yrotation
										JOINT RightHandRing2
										{
											OFFSET -5.62556 0.00000 0.00000
											CHANNELS 3 Zrotation Xrotation Yrotation
											JOINT RightHandRing3
											{
												OFFSET -3.56744 0.00000 0.00000
												CHANNELS 3 Zrotation Xrotation Yrotation
												End site
												{
													OFFSET 0.00000 0.00000 0.00000
												}
											}
										}
									}
									JOINT RightHandPinky1
									{
										OFFSET -11.11390 0.00000 -6.03719
										CHANNELS 3 Zrotation Xrotation Yrotation
										JOINT RightHandPinky2
										{
											OFFSET -4.52789 0.00000 0.00000
											CHANNELS 3 Zrotation Xrotation Yrotation
											JOINT RightHandPinky3
											{
												OFFSET -2.46976 0.00000 0.00000
												CHANNELS 3 Zrotation Xrotation Yrotation
												End site
												{
													OFFSET 0.00000 0.00000 0.00000
												}
											}
										}
									}
								}
							}
						}
					}
					JOINT LeftShoulder
					{
						OFFSET 0.01000 7.91373 5.19711
						CHANNELS 3 Zrotation Xrotation Yrotation
						JOINT LeftArm
						{
							OFFSET 18.41580 0.00000 0.00000
							CHANNELS 3 Zrotation Xrotation Yrotation
							JOINT LeftForeArm
							{
								OFFSET 29.11090 0.00000 0.00000
								CHANNELS 3 Zrotation Xrotation Yrotation
								JOINT LeftHand
								{
									OFFSET 24.65040 0.00000 0.00000
									CHANNELS 3 Zrotation Xrotation Yrotation
									JOINT LeftHandThumb1
									{
										OFFSET 5.35114 -0.85590 3.97906
										CHANNELS 3 Zrotation Xrotation Yrotation
										JOINT LeftHandThumb2
										{
											OFFSET 4.52789 0.00000 0.00000
											CHANNELS 3 Zrotation Xrotation Yrotation
											JOINT LeftHandThumb3
											{
												OFFSET 2.46977 0.00000 0.00000
												CHANNELS 3 Zrotation Xrotation Yrotation
												End site
												{
													OFFSET 0.00000 0.00000 0.00000
												}
											}
										}
									}
									JOINT LeftHandIndex1
									{
										OFFSET 14.26970 0.00000 2.88139
										CHANNELS 3 Zrotation Xrotation Yrotation
										JOINT LeftHandIndex2
										{
											OFFSET 5.48836 0.00000 0.00000
											CHANNELS 3 Zrotation Xrotation Yrotation
											JOINT LeftHandIndex3
											{
												OFFSET 3.01859 0.00000 0.00000
												CHANNELS 3 Zrotation Xrotation Yrotation
												End site
												{
													OFFSET 0.00000 0.00000 0.00000
												}
											}
										}
									}
									JOINT LeftHandMiddle1
									{
										OFFSET 14.26970 0.00000 -0.09147
										CHANNELS 3 Zrotation Xrotation Yrotation
										JOINT LeftHandMiddle2
										{
											OFFSET 6.17440 0.00000 0.00000
											CHANNELS 3 Zrotation Xrotation Yrotation
											JOINT LeftHandMiddle3
											{
												OFFSET 3.56744 0.00000 0.00000
												CHANNELS 3 Zrotation Xrotation Yrotation
												End site
												{
													OFFSET 0.00000 0.00000 0.00000
												}
											}
										}
									}
									JOINT LeftHandRing1
									{
										OFFSET 12.69180 0.00000 -3.06433
										CHANNELS 3 Zrotation Xrotation Yrotation
										JOINT LeftHandRing2
										{
											OFFSET 5.62556 0.00000 0.00000
											CHANNELS 3 Zrotation Xrotation Yrotation
											JOINT LeftHandRing3
											{
												OFFSET 3.56744 0.00000 0.00000
												CHANNELS 3 Zrotation Xrotation Yrotation
												End site
												{
													OFFSET 0.00000 0.00000 0.00000
												}
											}
										}
									}
									JOINT LeftHandPinky1
									{
										OFFSET 11.11390 0.00000 -6.03719
										CHANNELS 3 Zrotation Xrotation Yrotation
										JOINT LeftHandPinky2
										{
											OFFSET 4.52789 0.00000 0.00000
											CHANNELS 3 Zrotation Xrotation Yrotation
											JOINT LeftHandPinky3
											{
												OFFSET 2.46976 0.00000 0.00000
												CHANNELS 3 Zrotation Xrotation Yrotation
												End site
												{
													OFFSET 0.00000 0.00000 0.00000
												}
											}
										}
									}
								}
							}
						}
					}
					JOINT pCube4
					{
						OFFSET 0.00000 10.91090 1.10792
						CHANNELS 3 Zrotation Xrotation Yrotation
						End site
						{
							OFFSET 0.00000 0.00000 0.00000
						}
					}
				}
			}
		}
	}
	JOINT RightUpLeg
	{
		OFFSET -9.98441 0.00000 0.00000
		CHANNELS 3 Zrotation Xrotation Yrotation
		JOINT RightLeg
		{
			OFFSET 0.00000 -42.11790 0.00000
			CHANNELS 3 Zrotation Xrotation Yrotation
			JOINT RightFoot
			{
				OFFSET 0.00000 -45.00020 -0.00001
				CHANNELS 3 Zrotation Xrotation Yrotation
				JOINT RightForeFoot
				{
					OFFSET 0.00000 -3.74820 0.00000
					CHANNELS 3 Zrotation Xrotation Yrotation
					JOINT RightToeBase
					{
						OFFSET 0.00000 0.06325 14.43120
						CHANNELS 3 Zrotation Xrotation Yrotation
						End site
						{
							OFFSET 0.00000 0.00000 0.00000
						}
					}
				}
			}
		}
	}
	JOINT LeftUpLeg
	{
		OFFSET 9.98441 0.00000 0.00000
		CHANNELS 3 Zrotation Xrotation Yrotation
		JOINT LeftLeg
		{
			OFFSET 0.00000 -42.11800 0.00000
			CHANNELS 3 Zrotation Xrotation Yrotation
			JOINT LeftFoot
			{
				OFFSET 0.00000 -45.00070 0.00000
				CHANNELS 3 Zrotation Xrotation Yrotation
				JOINT LeftForeFoot
				{
					OFFSET 0.00000 -3.74824 0.00000
					CHANNELS 3 Zrotation Xrotation Yrotation
					JOINT LeftToeBase
					{
						OFFSET 0.00000 0.06325 14.43110
						CHANNELS 3 Zrotation Xrotation Yrotation
						End site
						{
							OFFSET 0.00000 0.00000 0.00000
						}
					}
				}
			}
		}
	}
}
MOTION
Frames: 4
Frame Time: 0.050000
-0.01788252765706398 0.022551623025189163 -0.005332000455819953 0.003126667017892822 -0.020848023717756584 0.0026502760271575323 -2.45899652619995 -0.5177801832596587 -0.8157121334878653 -0.9650942466961943 3.693366806522879 0.3612287334675291 -1.1918360713301326 -2.0973294547894183 -0.495186685576568 -0.3016824456077427 0.25770200270192706 -0.7395230609389144 -0.22807632090937918 13.957014699557453 1.0885508889667166 0.21066485076890704 1.2067758973026297 0.9213136853406576 -0.03885095481572788 -12.851962460589684 0.13714518340499326 -4.709703848172026 1.759877393421 -15.17242356924516 70.58908620458632 18.61578104577841 10.483502114032238 10.002805559207445 2.924543030647043 104.70117472355294 15.484303461437554 -0.4951464817419225 -4.306215344478598 4.507888778254621 -0.14085507462519034 -1.5549143709208726 -0.01608699510221271 -0.03679379094463078 -56.24415857392123 -0.03901820796193598 0.027850835818490068 -56.231833179954016 -38.80539451140137 0.009271611114905537 0.028024651170643976 0.013482717225454544 -0.02216892376369548 0.018484046328127158 0.01278826174743745 -0.027302106009475854 0.0049910364901085465 -36.645472107277044 -0.00047868978203392934 -0.009404237176366898 0.018776719094245446 0.03566503707487692 0.038197285742349624 -0.044661925972292536 0.0115707741029387 0.013111184856356744 -19.752353773764508 0.004260587055624681 -0.029718443715117664 0.034684620066457075 0.028559334729160956 0.03121229789457733 0.0031410716870492465 -0.005483031720293509 0.01753884574601179 24.039824525576353 0.010886396623814526 -0.044605158638201185 28.87546536615599 0.0087279830347433 0.023409269069578135 28.904632158723345 0.047240383168523095 0.0056204532606968305 6.9392684298800775 1.6445545924797078 14.128185414940868 -69.76179499960674 27.223230932959 -10.031682327137554 -1.8951256870665905 -2.8402892542179567 -103.07113114163276 -10.204457936977759 -7.747615649207376 3.996124449619598 -0.4710052156500009 0.0693684575156201 -8.144680788711488 -0.0037213898557116533 0.03590353426708643 44.51971556315597 0.027710489586093453 0.03983602768314562 44.600791095236715 12.466713115234798 0.04772175511352228 -0.0048757941802692875 -0.0017937121576975963 -0.02702663920085742 0.040444962906248244 -0.013511380726118414 0.026388098325717643 -0.04405590841449744 11.104923620152631 0.02505761208488581 0.04797176406488663 0.022285272912465858 0.04421033150669866 -0.022803506363353963 0.006612440974067928 0.04269053548546805 0.04068325961191421 4.7913764630056805 0.026465742409083018 -0.028843599302851367 -0.013818857108718954 -0.02697369827219558 0.029284645355764596 -0.045974722256545975 0.04751047351337617 0.010852971762491849 -5.636216133863258 0.01585115653225688 -0.015736394876637517 -6.698617106684158 -0.04166171159753322 0.02900783467188418 -6.722848489310112 0.022397584093879156 -0.0003860998333440466 0.021774504240746433 -0.0033057374088385763 -0.02629920122120832 8.005614107758834 3.4742629294971104 -19.212102374556455 0.01314814161834743 10.370421169259233 -0.022652708117556656 -5.621674141162251 -15.617962688253678 3.146348460479981 -0.03305817495575092 0.034661287219869344 -0.03163100145338422 0.0049841732737867595 4.7376141116862085 0.03423336704020594 12.422580947290257 -8.236509685345291 6.839013841555327 0.029787677117530213 46.35482380868656 -0.014128525992026224 -4.289394098073564 -14.705128973824243 -3.86995708376119 -0.01353885318171526 -0.04758255336203333 -0.038780482147289415 0.03641470413616962 -10.760220682110795 0.010862458285616189 
-0.04768642331031639 0.011525671266871767 0.0004928085861337831 0.029417974738927134 -0.049547694694300405 0.029929777253065965 -2.344394408071654 -0.43714592863383606 -0.8629592515962479 -0.9880192647023245 3.6263644241807134 0.3566389774032977 -1.1342917673631825 -2.0461064202871855 -0.5084688549979013 -0.2858272380990079 0.21036212603970778 -0.7186523981515919 -0.3028608576839575 13.823487913663127 1.0922796122812757 0.24023145472998741 1.1150786771629149 0.9776802254524485 -0.07834322213383597 -13.067577270461095 0.06621953270099656 -4.461694047262309 1.7766869776633003 -15.165025992836886 70.53553631007374 19.57321076659784 10.07490037284075 10.215118473354181 2.7148079429243372 104.63054552800908 15.65365897025814 -0.45907035556771403 -4.349886265885861 4.577070403043486 -0.10290535070733844 -1.5585106333003398 -0.021418600814247228 -0.046009382365997796 -56.242075906671914 -0.020312675216671995 0.02303823288523911 -56.2151392926165 -38.75479907474282 -0.028948147131003677 -0.014905027729094533 -0.027600408091281874 0.034330432139542066 0.006869890629980812 -0.03441486742177213 0.018872281078351923 -0.018984127311483245 -36.65201427825815 0.04607757296494269 -0.040124399967202136 0.041970780027686304 0.007240924013875639 0.04716758114040516 0.01105391267679078 0.016317081467021335 0.007282231619102299 -19.78465621414061 -0.015065938715500672 0.006986282117243586 0.026396907617906182 0.010630028995752112 -0.005765023305389166 -0.018520310621905192 0.037423081392458334 0.03785605239487709 24.057181139096258 0.023580515635058884 0.016954243832436603 28.908736737391795 0.025793694243721726 -0.025480269449329126 28.824449443654526 0.03512717943861346 -0.04729578758531161 6.723605301493587 1.5641209073717022 14.077601637835192 -69.7816267815542 27.82147351193989 -9.890080654695383 -3.3013494713390807 -2.415084039917017 -102.18592434067558 -10.760399409353141 -7.840139789445241 4.274222349719896 -0.5065014445087822 0.039040893471254674 -8.104709188196932 0.008382993648713997 -0.018581585062782624 44.54937204474012 0.009709459385648002 0.03589813373360894 44.571052867765964 12.478042717523415 -0.04270049446852609 -0.026364920829468143 0.04406654878647142 0.049619094038400875 -0.030874200752391247 -0.008765760660598912 -0.006443303119175726 0.01754337419706269 11.103051304081408 0.027785816413879276 -0.02374951092961143 -0.00991610226941443 0.04532287298813022 0.01776398767272571 0.04335584737680981 0.03306680064589359 0.03568505997999862 4.771240901718382 -0.022986697682878712 -0.004995587076426699 0.01940826062974486 0.018046668868587794 0.02231498261052757 -0.03306954156548935 -0.0018076850549971748 -0.03303015532602861 -5.599855035859756 -0.0042239235132553255 0.018379599473077816 -6.707609493882979 0.007629047295206273 0.03712500348671576 -6.687119117144386 -0.032885628411314434 -0.0007523799614550209 0.028625395166561665 0.03406096305960265 -0.0051310128238247 8.018946894293215 3.509460546880504 -19.18049586129865 -0.014776493090602886 10.40053150259472 0.006891769681492759 -5.606388204585306 -15.679703748683487 3.224437874787352 -0.006084497707445078 0.0216393169411323 -0.008533829828574181 -0.010949848439371341 4.746789699590223 0.026863376434749908 12.46396453010448 -8.23442755686788 6.906840303317972 0.03320998527002298 46.35754311656698 -0.027251900400491046 -4.327491140709102 -14.767626510355791 -3.7888842325259313 -0.019481212131292842 0.02550874180238044 0.020800481715358237 -0.049696659499010025 -10.72761608861999 -0.024776406315374762 
-0.007461046572273923 0.020467013912038003 0.03604354852289637 0.03610951301127862 -0.015821583459284316 0.01620055993359792 -2.2839608156769957 -0.2613239188118906 -0.8519275052146068 -0.9486060758020571 3.6352686798126803 0.42065010676553094 -1.1140590306537672 -1.977728951324864 -0.48549475382140184 -0.255180313788745 0.2525969574899028 -0.6980667376295824 -0.32461277493398105 13.669980231053023 1.081159584307718 0.1785479346532816 1.084138475154098 1.0539000351171501 -0.11626211443190973 -13.142532368861378 0.06608941757774105 -4.362823718043215 1.7282221732115333 -15.09753636280671 70.75776552339174 19.64014547578707 10.263727616117711 11.02025568604414 2.7105987336777297 104.29984621124518 15.600692591391226 -0.46214895405375706 -4.306777021024345 4.5458110731590535 -0.13038315276138282 -1.5900851056618137 0.03262608435959365 -0.014661529450769106 -56.194105100371466 -0.040991575347544384 -0.003040817501020989 -56.21603428523267 -38.79229183821208 -0.02115980495975312 0.04857099855331573 -0.036800451136640176 -0.004129248127538982 -0.0281412638728814 -0.016069052605654745 0.025895828836298884 -0.002563455275322599 -36.65820800997608 -0.028832507162572043 -0.043508513666612125 0.03911902094094245 0.03715382919687075 -0.030684809957768486 0.02606255368423128 0.03206037391112917 -0.038743917006932124 -19.785015872090298 0.03299656142024653 -0.004418613790211883 -0.03081532501592844 0.04173382635326521 -0.03295071703231488 0.01374268563725083 -0.01306037777485505 -0.007410815412512323 24.095824494241285 0.02160918395036896 -0.025055238089007097 28.824251435703086 0.01734640637048431 -0.0045045126220090645 28.851771392697106 -0.024203312656645038 0.025734012683124734 6.614766917483237 1.5342363747444572 14.084685096641095 -69.78487494288507 27.911614791582114 -9.99335302489099 -4.976604211670273 -1.8383059661666699 -101.38382318615498 -11.023524306472082 -7.572304682433556 4.223199015385335 -0.4451066926175442 0.11714447245406973 -8.155654441414345 -0.02344747760136446 0.030182327195303987 44.56115834439075 -0.006580710947098032 0.02699114455329672 44.57766067430845 12.467739222984637 -0.011873792682874985 0.015463625435792466 -0.03222547443895455 0.015548158157288583 0.012576796023143901 -0.02170397827303486 0.0196183018791849 0.011860073203610162 11.109029074129829 -0.017419482325647734 0.004108098546513011 -0.0016601715736119073 0.014614687878158025 0.00780155524075853 0.0036931725068184724 -0.010844212612241848 -0.012995734716684193 4.764792331730161 -0.004672827334079422 -0.02218163968474221 0.03695530428930957 0.003778718289900516 -0.005622480274453005 -0.03854420255204572 0.013302807871412985 0.026394153978509263 -5.570736638023311 -0.040303574954953174 0.02174468089501995 -6.737567506084915 0.024232771369399258 0.014291716013815405 -6.746502198581143 -0.005056107117959325 -0.002525608737613079 -0.049816590912848374 0.032614278826941345 0.02127092302913316 8.046358649794875 3.461248000286408 -19.25805202478196 -0.014777817434203134 10.38514980897754 0.03423451892206307 -5.574916843396547 -15.639129395263014 3.1544731862905664 0.046939048254002344 -0.01854388817214163 0.04725315846373392 0.012461971624548502 4.657798440752095 0.0462751974528362 12.468746151778083 -8.202861545875061 6.847564783458476 -0.003826966853092835 46.40375328334071 -0.04460953465068694 -4.291636285536486 -14.71833736422647 -3.794403392987556 0.0013299283244701976 0.0018417484119002464 0.027075742640162086 -0.02474048577045466 -10.780942683001193 -0.0020406084129292244 
0.046870576992724844 0.04757995444733698 -0.012289058129560456 -4.484290970497575e-05 0.03051468727044898 -0.021523195046180915 -2.303776834421919 -0.178022751592478 -0.8375445087185011 -0.9863547758797413 3.6795708166850334 0.3781506427862614 -1.1759385818773314 -1.9441187112773426 -0.4828412767221319 -0.17326002862459997 0.2827295399345286 -0.7089980805644751 -0.3238930447312701 13.649994295068513 1.0996561003050616 0.247670732244229 0.9574214926684589 1.063930877692913 -0.07500447201752447 -13.30552046643898 0.15392398548514286 -4.267556403785207 1.671634381690749 -15.027188197725344 70.82226288316026 19.286027543631608 10.1943312456902 12.118845646718862 2.732264435308207 103.61784140422128 15.470824458993448 -0.46787265173851583 -4.234211116249076 4.522220725575401 -0.17050658619092107 -1.5768116678307538 0.019294191368914762 -0.046675975467572024 -56.265952469975545 0.010078080731784986 0.014499603408112691 -56.20631540280399 -38.771404758275416 0.014020094316852093 0.020390221381349133 -0.003981745680949018 -0.027788707182636468 -0.04181419691939108 0.04564474126300126 -0.02561380436716608 0.002720814564184739 -36.67277767879763 -0.009040704487510046 0.04799235185613897 0.0036925803405256537 0.013166350774541334 -0.0005066086062366482 0.02208786640221518 -0.005754076107637728 0.033311228286289726 -19.77296935028032 -0.01533778266025724 0.01764196894096318 0.010073614182453292 -0.003091415877615164 -0.027650464729022415 0.009742551603353692 -0.03680474130208513 0.025733094403377885 24.088942528307275 0.005716565496490258 -0.009652904690263017 28.848338757227786 -0.024112190155205316 -0.02707992506690247 28.866996184373413 0.013190433583538243 0.010804746832662826 6.563055232430332 1.5317200540534617 14.013548371509408 -69.7418045033558 27.759744765528893 -10.332487635913218 -6.5426749394511186 -1.446609991758895 -100.55501555246543 -10.917187758083982 -7.129793042093791 4.121200119415193 -0.42655327513075775 0.03537322089375588 -8.117055447597695 -0.01934698469197583 -0.02871569134287468 44.535630954138576 0.007891341547154495 -0.03779971038626295 44.548835583170906 12.448109736864618 -0.02043297128713944 -0.014064058453508168 0.026356492024885325 0.0431834740104041 0.004443208674785653 0.030842608432668134 -0.03380898550832509 -0.03599539981703344 11.148365682169885 0.03808033746180129 0.0064638313865884815 -0.04183210599559235 0.03389079208029824 -0.02212022908132137 -0.004359758466035304 -0.010836778013833223 -0.04052269464392206 4.805471457428117 -0.016364905214718728 0.045754722156121676 0.03419954395351564 -0.017408628597665437 0.01872878993909221 0.009244182242296185 -0.03156274559013174 -2.890244143889207e-05 -5.605281669847718 -0.007590538839917822 -0.03892038326303355 -6.681470778443641 -0.021758134663114253 -0.010805350944153741 -6.751139063887563 0.030843402699578273 -0.04261841974624002 -0.016321596198781606 0.0338805547203104 0.025204280478953435 8.05889157914758 3.472191938480192 -19.172710419848105 0.011915838713354195 10.354280921701797 0.04579968993393706 -5.637508486207922 -15.618600309537229 3.1618233078372686 0.037681924997252016 -0.002130456720738114 0.006193944086978674 -0.011764036436380448 4.747145582150233 -0.006442015574097558 12.418212048953219 -8.26727280723471 6.888361233060623 0.032378994639848814 46.367192110295804 0.008839605334397272 -4.290576935696072 -14.750282891530317 -3.843643777350835 -0.019545543187094713 -0.04810647821066759 -0.028781630120170706 0.007599261759502257 -10.718178273162957 -0.015849876240785144 
